<?xml version="1.0" encoding="UTF-8"?><svg id="b" xmlns="http://www.w3.org/2000/svg" width="413.884" height="269.329" viewBox="0 0 413.884 269.329"><defs><style>.d{fill:#3d8dcc;}.e{fill:#fff;}.f{fill:#e2e2e2;}.g{fill:none;}.h{fill:#a0a0a0;}.i{fill:#a98a75;}.j{fill:#211715;}.k{fill:#c6c6c6;}.l{fill:#645d5c;}</style></defs><g id="c"><path class="e" d="M121.473,141.265h150.02c-1.1,4.3-.92,7.35-.92,7.35.09,1.26.21,2.53.37,3.8H122.853c-.44-3.71-.88-7.44-1.38-11.15Z"/><path class="e" d="M237.903,133.835v6.29c0,.63-.51,1.14-1.14,1.14h-41.02c-1.21,0-2.17-.97-2.17-2.18v-5.25c0-.64.51-1.15,1.14-1.15h42.05c.63,0,1.14.51,1.14,1.15Z"/><path class="e" d="M228.843,131.545v1.14h-26.21v-13.86c8.65-.01,17.56-.02,26.21-.01v12.73Z"/><path class="e" d="M281.353,35.435c0,13.71.02,56.15.03,79,0,2.4-1.95,4.36-4.35,4.36-10.51,0-28.65.01-48.19.02-8.65-.01-17.56,0-26.21.01-19.44,0-37.53.01-48.15.01-2.41,0-4.36-1.94-4.36-4.35-.01-24.47-.02-57.68-.03-79,0-2.41,1.95-4.36,4.36-4.36,23.62,0,103-.03,122.55-.04,2.4,0,4.35,1.94,4.35,4.35Z"/><path class="f" d="M128.833,143.266c17.445,0,34.89,0,52.335,0,16.563,0,33.126,0,49.689,0,9.417,0,18.833,0,28.25,0,2.574,0,2.578-4,0-4-16.616,0-33.231,0-49.847,0-16.794,0-33.589,0-50.383,0h-30.043c-2.574,0-2.578,4,0,4h0Z"/><path class="f" d="M128.833,154.416c17.799,0,35.597,0,53.396,0h51.381c9.546,0,19.093,0,28.639,0,2.574,0,2.578-4,0-4-16.969,0-33.939,0-50.908,0h-52.075c-10.144,0-20.288,0-30.432,0-2.574,0-2.578,4,0,4h0Z"/><path class="f" d="M152.123,114.486c-.007-18.854-.015-37.707-.022-56.561-.002-4.403-.004-8.805-.005-13.208,0-2.039-.002-4.079-.002-6.118,0-1.501-.48-3.78.803-4.892.865-.75,2.046-.578,3.111-.579,1.021,0,2.041,0,3.062,0,2.388,0,4.776-.002,7.164-.002,12.992-.004,25.984-.009,38.976-.014,14.201-.005,28.402-.01,42.603-.016,5.767-.002,11.534-.004,17.301-.006,3.937-.001,7.956-.237,11.887-.004,3.062.181,2.354,3.944,2.355,6.081.001,2.841.002,5.682.003,8.523.003,7.464.006,14.928.009,22.391.003,8.302.007,16.604.01,24.906.001,3.81.003,7.62.004,11.431,0,1.747.001,3.493.002,5.24,0,1.335.382,3.243-.577,4.329-.91,1.031-2.318.806-3.556.807-1.204,0-2.408,0-3.612.001-2.71,0-5.421.002-8.131.003-6.725.002-13.451.005-20.176.007-15.435.006-30.869.011-46.304.017-12.935.005-25.869.01-38.804.014-2.092,0-5.98.719-6.099-2.349-.1-2.566-4.1-2.579-4,0,.087,2.25,1.171,4.329,3.15,5.484,1.537.897,3.206.866,4.917.865,2.644,0,5.288-.002,7.932-.003,6.593-.002,13.185-.005,19.778-.007,15.907-.006,31.814-.012,47.721-.018,13.591-.005,27.181-.01,40.772-.015,2.966-.001,6.342.499,8.775-1.545,3.064-2.575,2.214-7.268,2.213-10.832-.003-8.092-.006-16.184-.009-24.275-.006-15.061-.012-30.122-.018-45.184-.001-3.244.273-6.636-2.749-8.74-2.089-1.454-4.738-1.131-7.154-1.13-4.942.002-9.883.004-14.825.005-13.949.005-27.899.01-41.848.015-14.251.005-28.501.01-42.752.015-5.291.002-10.583.004-15.874.005-2.818,0-5.856-.359-8.084,1.751-1.702,1.612-1.976,3.674-1.975,5.897,0,2.049.002,4.098.002,6.147.008,19.342.016,38.683.023,58.025.002,4.513.003,9.025.005,13.538,0,2.574,4.001,2.578,4,0Z"/><path class="f" d="M200.633,118.837v12.709c0,1.046.92,2.048,2,2s2-.879,2-2v-12.709c0-1.046-.92-2.048-2-2s-2,.879-2,2h0Z"/><path class="f" d="M226.842,118.837v12.709c0,1.046.92,2.048,2,2s2-.879,2-2v-12.709c0-1.046-.92-2.048-2-2s-2,.879-2,2h0Z"/><path class="f" d="M194.711,134.688c11.326,0,22.651,0,33.977,0h6.881c.273,0,.921.124,1.178,0,.167-.081-.647-1.182-.841-.747-.063.142,0,.461,0,.608v2.676c0,.779,0,1.558,0,2.337,0,.127-.052.388,0,.512v.038c-.002.364.203.082.616-.845-.181-.109-.802,0-1.019,0-2.156,0-4.312,0-6.468,0-5.285,0-10.57,0-15.855,0-5.005,0-10.01,0-15.015,0-.746,0-1.523.065-2.266,0-.457-.04-.33-.217-.33-.824v-2.949c0-.391.017-.788,0-1.178-.046-1.037.17.235-.327.302,1.072-.144,1.655-1.52,1.397-2.46-.318-1.157-1.385-1.541-2.46-1.397-2.726.366-2.61,3.148-2.61,5.208,0,1.827-.319,3.99.804,5.558,1.483,2.071,3.997,1.74,6.231,1.74s4.462,0,6.692,0c5.667,0,11.333,0,17,0,2.772,0,5.545,0,8.317,0,1.18,0,2.359,0,3.539,0,1.235,0,2.795.237,3.927-.314,2.119-1.031,1.826-3.272,1.826-5.236,0-1.535.384-3.766-.314-5.199-1.098-2.256-3.708-1.829-5.783-1.829h-21.671c-5.809,0-11.618,0-17.427,0-2.574,0-2.578,4,0,4Z"/><path class="e" d="M337.903,140.075c5.39-9.6,17.96-38.73,22.78-50.99.26-.68.5-1.3.72-1.87,2.56,2.01,5.86,3.98,8.84,6.13,13.61,5.7,27.61,14.31,32.16,26.25,5.28,13.88,7.3,32.27,6.99,47.14-.16,7.94-.61,16.04-3.49,23.44-1.89,4.86-5.47,8.83-10.53,11.4l.99,3.07c1.88,7.96,2.17,13.66,1.69,18.04-.55,5.02-2.11,8.32-3.48,11.31-1.05,2.31-2.56,4.55-4.27,6.41-1.84,2.02-4.49,3.64-6.72,5.2-3.42,2.4-7,4.56-10.71,6.48-3.61,1.87-7.12,4.01-10.92,5.52-1.46,1.44-2.07,4.39-2.25,7.58h-89.74c-.45-8.63-.9-17.25-1.35-25.88-.25-4.68.55-9.64,1.91-14.13,2.98-9.78,10.48-15.93,19.33-21.07,6.84-3.98,12.76-7.36,19.49-9.9v-30.93c-2.84,2.84-5.68,5.69-5.68,5.69-3.36,3.37-8.08,5.35-12.84,5.38s-9.51-1.88-12.92-5.2c-5.39-5.25-6.78-13.03-7.33-20.53,0,0-.64-10.58,7.61-20.14,8.58-9.96,18.44-20.79,18.44-20.79,5.89-7.37,14.57-12.04,23.73-14.5l7.05-3.99c1.06,10.59,3.57,38.88,5.12,50.58l5.38.3Z"/><path class="e" d="M327.033,86.875c-2.67-1.13-5.17-2.77-7.59-4.94-5.3-4.74-7.38-11.94-7.89-19.83-.25-3.79-.44-7.85-.74-11.96l-.22.02c-.73-4.33-.86-9.21-.54-13.53l6.33.85,1.52.45c.78.24,1.49.37,2.24.43,6.16.51,16.95-.31,20.8-.98,2.42-.42,12.31-2.98,12.72-3.19.51-.26,1.19-.23,1.87.09.77.36,1.74,1.01,1.87,1.12,5.05,4.15,6.28,7.37,6.27,12.64-.04,1.69.1,2.34.13,4.4h8.85c1.12-.73,2.49-.85,3.61-.62,2.45.48,3.29,1.92,3.62,2.74.18.44.3.95.36,1.49.34,2.39-.34,5.48-1.43,7.43-.93,1.69-2.34,4.02-5.18,5.58-.87.47-3.03,1.1-5.02.84l-.09.7c-.65,1.22-2.17,3.35-2.17,3.35-1.69,2.27-3.5,4.4-5.75,6.45-.78.7-1.61,1.4-2.51,2.09l-6.63,3.18c-2.77,1.14-6.67,2.38-9.58,2.8-1.12.16-2.27.27-3.46.32-4.18.19-7.92-.44-11.39-1.92Z"/><path class="e" d="M360.493,87.915c.03.39.07.8.19,1.17-4.82,12.26-17.39,41.39-22.78,50.99l-5.38-.3c-1.55-11.7-4.06-39.99-5.12-50.58l-.37-2.32c3.47,1.48,7.21,2.11,11.39,1.92,1.19-.05,2.34-.16,3.46-.32,2.91-.42,6.81-1.66,9.58-2.8l6.63-3.18c.9-.69,1.73-1.39,2.51-2.09-.27,2.48-.31,5.01-.11,7.51Z"/><path class="d" d="M338.818,96.733c-1.456,1.274-2.756,2.417-4.25,3.832.016.28.027.443.027.443.181,2.02.617,5.619.713,7.373.141,2.574-2.047,12.059-3.582,18.613,0,0-.497,1.876-1.026,3.877,3.991-.085,7.981-.172,11.97-.262.746-1.573,1.527-3.25,2.328-4.994-.343-6.11-.524-12.554-.477-13.471.05-1.09,1.46-6.92,2.12-10.03l.139-.455c-1.602-1.993-3.217-3.765-5.045-5.724-.184-.198-.388-.394-.645-.477-.549-.176-1.091.241-1.524.62-.255.223-.503.441-.747.654Z"/><path class="l" d="M312.279,25.718c-.574,1.576-1.035,3.159-1.371,4.695-.38,1.74-.665,3.782-.836,5.978,2.926.507,6.309,1.094,6.309,1.094l1.522.452c.775.232,1.486.37,2.241.432,6.163.502,16.952-.31,20.803-.981,2.415-.421,12.302-2.988,12.721-3.198.502-.252,1.186-.223,1.861.091.776.361,1.742,1.016,1.872,1.123,5.054,4.153,6.281,7.373,6.271,12.642-.042,1.685.096,2.343.126,4.396l8.835.01c1.128-.733,2.508-.854,3.633-.631,2.449.484,3.292,1.925,3.62,2.742.178.445.3.943.372,1.476,2.595-4.265,3.142-12.114,3.492-15.477.328-3.174.142-6.391-.514-9.522-1.31-6.22-3.467-11.356-8.092-15.95,0,0-.458-.455-.917-.911l-4.849-3.711c-7.799-5.968-15.168-7.613-22.597-7.514-11.772.158-21.387,4.353-27.993,11.582-2.757,3.016-5.014,7.073-6.51,11.182Z"/><path class="j" d="M366.861,94.12c8.19,3.22,16.389,7.216,23.229,12.827,3.188,2.615,6.14,5.599,8.322,9.118,2.21,3.564,3.425,7.656,4.527,11.673,2.58,9.404,3.864,19.153,4.317,28.882.228,4.9.214,9.808-.002,14.708-.228,5.161-.755,10.33-2.243,15.297-1.27,4.238-3.318,7.944-6.789,10.768-3.559,2.895-8.018,4.377-12.5,5.055-1.069.162-1.659,1.507-1.397,2.46.314,1.143,1.388,1.559,2.46,1.397,8.391-1.27,16.451-5.78,20.217-13.662,2.316-4.847,3.303-10.272,3.847-15.578.54-5.27.644-10.609.552-15.904-.18-10.351-1.3-20.779-3.682-30.863-1.096-4.638-2.375-9.416-4.458-13.72-1.88-3.885-4.695-7.316-7.828-10.257-7.79-7.312-17.651-12.181-27.508-16.057-1.006-.395-2.196.434-2.46,1.397-.312,1.135.388,2.063,1.397,2.46h0Z"/><path class="h" d="M363.607,267.166c-1.289.084-2.614.162-3.977.235.013-3.965.519-8.028,2.325-9.795,3.793-1.509,7.31-3.649,10.923-5.52,3.707-1.92,7.287-4.086,10.708-6.479,2.23-1.56,4.873-3.185,6.718-5.199,1.706-1.863,3.22-4.109,4.274-6.411,1.403-3.064,3.006-6.453,3.516-11.679.652.323,1.015.502,1.015.502l4.283,2.118c3.861,2.244,6.52,6.112,7.685,10.289s1.03,8.672-.158,12.861c-2.418,8.529-6.88,16.446-47.312,19.078Z"/><path class="j" d="M398.099,224.547c1.928.953,4.046,1.769,5.756,3.096,3.401,2.639,5.368,6.782,5.882,10.997.425,3.493-.083,6.974-1.164,10.301-.182.561-.39,1.11-.603,1.66-.118.305.215-.456-.004.005-.06.127-.115.257-.175.384-.136.29-.281.576-.434.857-.291.534-.616,1.043-.963,1.542-.039.055-.367.494-.15.211s-.126.155-.17.207c-.22.26-.443.517-.677.764-.506.533-1.053,1.014-1.616,1.485-.415.348.128-.085-.143.112-.155.112-.308.226-.464.336-.37.259-.748.506-1.133.742-1.803,1.105-3.398,1.807-5.133,2.447-2.515.928-5.109,1.634-7.722,2.224-9.227,2.085-18.736,2.859-28.159,3.407-2.559.149-2.576,4.15,0,4,9.174-.533,18.411-1.314,27.426-3.164,5.141-1.055,10.406-2.469,14.993-5.097,2.896-1.659,5.465-3.915,7.154-6.821,2.307-3.969,3.376-9.016,3.279-13.52-.118-5.501-2.07-11.024-6.064-14.909-2.238-2.177-4.944-3.361-7.696-4.721-2.3-1.137-4.329,2.312-2.019,3.454h0Z"/><path class="j" d="M314.751,190.306c-6.341,1.812-12.349,4.512-18.134,7.656-5.389,2.928-10.837,5.93-15.692,9.7-4.294,3.334-8.095,7.417-10.491,12.34-2.94,6.037-4.136,13.125-3.797,19.8.43,8.46.884,16.92,1.326,25.379.134,2.561,4.135,2.577,4,0-.381-7.299-.762-14.597-1.144-21.896-.178-3.413-.392-6.787.027-10.193.381-3.104,1.114-6.247,2.22-9.175,3.98-10.538,14.385-16.265,23.673-21.455,6.093-3.405,12.349-6.378,19.076-8.3,2.471-.706,1.42-4.567-1.063-3.857h0Z"/><path class="j" d="M394.439,205.18c1.983,8.517,2.89,17.248-.536,25.466.127-.304-.189.434-.241.551-.122.276-.246.552-.371.827-.441.971-.889,1.937-1.42,2.863-1.563,2.725-3.591,4.991-6.144,6.82-5.329,3.818-10.904,7.025-16.656,10.147-1.596.866-3.188,1.74-4.817,2.542-1.554.766-3.369,1.202-4.417,2.645-1.971,2.714-2.137,6.596-2.202,9.818-.052,2.575,3.948,2.575,4,0,.048-2.383-.038-5.969,1.734-7.838l-.883.514c2.832-1.147,5.523-2.554,8.205-4.011s5.426-2.846,8.06-4.415c2.598-1.547,5.081-3.255,7.575-4.962,2.393-1.638,4.672-3.344,6.497-5.62,4.302-5.365,6.923-12.49,7.361-19.339.366-5.727-.594-11.512-1.889-17.072-.584-2.506-4.441-1.445-3.857,1.063h0Z"/><path class="j" d="M358.598,80.386c-.182,1.74-.262,3.488-.222,5.238.039,1.67-.049,3.723.908,5.174.888,1.346,2.468,2.31,3.834,3.118,1.453.859,3.019,1.542,4.622,2.067,1.026.336,2.184-.391,2.46-1.397.298-1.086-.367-2.123-1.397-2.46-1.237-.406-2.286-.867-3.46-1.543-.588-.338-1.158-.706-1.71-1.1-.394-.282-.863-.586-1.012-.888.085.173-.025-.068-.039-.128-.034-.141-.068-.284-.088-.428.029.213.004-.062,0-.126-.008-.179-.028-.359-.04-.538-.052-.762-.081-1.526-.088-2.289-.015-1.57.067-3.138.231-4.699.113-1.076-1-2-2-2-1.175,0-1.887.921-2,2h0Z"/><path class="e" d="M332.523,139.779c-1.549-11.7-4.064-39.998-5.122-50.584-3.109,1.767-6.221,3.529-9.332,5.292.875,2.043,2.927,6.386,4.101,8.641-2.52,1.18-5.218,2.611-7.52,3.858,1.329,5.69,2.917,10.875,4.792,17.5"/><path class="j" d="M378.177,135.606c.12,5.225-.259,10.446-1.192,15.59-.193,1.062.29,2.156,1.397,2.46.97.266,2.267-.328,2.46-1.397.996-5.494,1.463-11.07,1.335-16.653-.059-2.57-4.059-2.579-4,0h0Z"/><path class="j" d="M307.343,165.888v28.906c0,2.574,4,2.578,4,0v-28.906c0-2.574-4-2.578-4,0h0Z"/><path class="j" d="M373.729,16.504c5.305,5.344,8.054,12.994,8.174,20.476.049,3.048-.334,6.196-.786,9.21-.462,3.078-1.049,6.366-2.714,9.047-1.362,2.193,2.097,4.203,3.454,2.019,1.882-3.028,2.631-6.692,3.143-10.174s1.003-7.074.892-10.58c-.265-8.382-3.388-16.837-9.334-22.826-1.816-1.829-4.645.999-2.828,2.828h0Z"/><path class="j" d="M370.388,8.741c-5.514-4.172-11.811-6.834-18.699-7.571-6.11-.654-12.556.007-18.403,1.896-5.596,1.807-10.78,4.853-14.935,9.032-4.49,4.516-7.536,10.5-9.101,16.642-1.8,7.065-1.755,14.797-.589,21.956.174,1.067,1.499,1.661,2.46,1.397,1.134-.312,1.571-1.39,1.397-2.46-1.835-11.263-.402-24.527,7.427-33.395,7.36-8.337,18.599-11.751,29.48-11.241,7.026.329,13.368,2.978,18.945,7.198.862.652,2.237.137,2.736-.718.6-1.026.147-2.083-.718-2.736h0Z"/><path class="j" d="M318.324,55.792c-.324-1.624.247-5.252,3.015-5.336,3.626.323,3.48,4.754,2.1,6.729-1.13,1.617-4.124,2.081-5.115-1.393Z"/><path class="j" d="M329.998,59.884c-.535.815-1.064,1.644-1.52,2.506-.196.37-.407.751-.497,1.163-.199.912,0,1.749.621,2.453.406.46.915.742,1.475.963.358.141.75.159,1.128.209l-.532-.071c.053.007.106.015.158.026.535.103,1.058.081,1.541-.202.415-.243.811-.718.919-1.195.117-.512.091-1.087-.202-1.541-.27-.418-.688-.821-1.195-.919-.27-.052-.544-.077-.817-.114l.532.071c-.162-.023-.317-.058-.469-.121l.478.202c-.112-.051-.214-.113-.314-.186l.405.313c-.116-.093-.225-.194-.316-.311l.313.405c-.022-.032-.04-.067-.054-.104l.202.478c-.013-.037-.022-.074-.027-.113l.071.532c-.005-.062-.004-.118.002-.18l-.071.532c.018-.109.048-.21.087-.312l-.202.478c.228-.54.56-1.052.864-1.552.284-.468.574-.932.875-1.389.276-.42.332-1.067.202-1.541-.128-.464-.486-.967-.919-1.195-.464-.245-1.026-.368-1.541-.202-.511.165-.898.467-1.195.919h0Z"/><path class="j" d="M359.508,83.911c2.514-1.946,4.778-4.171,6.781-6.638,1.441-1.775,2.865-3.647,3.961-5.661.5-.919.257-2.221-.718-2.736-.934-.494-2.202-.264-2.736.718-.538.988-1.178,1.923-1.818,2.846-.153.221-.307.441-.467.656-.115.155-.232.309-.349.463-.249.329.121-.147-.159.206-.22.278-.44.555-.664.829-1.973,2.409-4.197,4.582-6.659,6.488-.832.644-.727,2.161,0,2.828.882.809,1.941.687,2.828,0h0Z"/><path class="j" d="M373.642,54.178c1.009-.608,2.202-.556,3.115-.139.556.254.584.282,1.004.758-.212-.241-.033-.054.058.1s.168.31.251.467c-.329-.62.047.184.093.355.035.131.138.682.131.625.081.671.058,1.368-.004,2.04-.107,1.163-.421,2.425-.9,3.512-.819,1.857-2.199,3.802-4.005,4.983-.285.186-.579.357-.879.517-.404.215.411-.119-.105.045-.535.17-1.061.334-1.615.434-.88.159-2.17.176-3.026-.266-2.284-1.179-4.309,2.271-2.019,3.454,2.38,1.229,5.328,1.131,7.804.204,2.557-.957,4.6-2.982,6.079-5.229,1.43-2.172,2.293-4.546,2.608-7.127.291-2.387.026-4.991-1.59-6.878-2.155-2.516-6.24-2.983-9.019-1.308-2.202,1.327-.194,4.787,2.019,3.454h0Z"/><path class="j" d="M332.595,101.009c.21,2.285.512,4.563.679,6.852.109,1.496-.132,2.856-.383,4.298-.839,4.804-1.982,9.558-3.094,14.305-.586,2.504,3.269,3.573,3.857,1.063,1.135-4.845,2.31-9.699,3.146-14.607.267-1.567.583-3.192.493-4.788-.135-2.38-.479-4.75-.698-7.123-.099-1.076-.848-2-2-2-1.005,0-2.1.918-2,2h0Z"/><path class="j" d="M315.85,39.414c4.083,1.212,8.201,1.189,12.431,1.047,4.304-.145,8.664-.397,12.919-1.098,3.155-.519,6.275-1.427,9.365-2.235,1.155-.302,2.346-.56,3.475-.952.234-.081.818-.121.482-.175.404.065.97.53,1.323.757,1.038.666,1.952,1.613,2.786,2.518,1.496,1.623,2.485,3.505,2.849,5.688.402,2.413.272,5.033.319,7.478.049,2.571,4.05,2.579,4,0-.088-4.57.189-9.469-2.377-13.479-1.347-2.105-3.239-4.081-5.304-5.492-1.197-.818-2.55-1.537-4.039-1.413-.33.028-2.071.542-1.041.24-.167.049-.334.103-.501.152-3.297.968-6.656,1.781-10.003,2.556-3.542.82-7.011,1.068-10.758,1.291-2.829.168-5.667.267-8.501.216-2.23-.041-4.229-.323-6.362-.956-2.473-.734-3.529,3.125-1.063,3.857h0Z"/><path class="j" d="M268.569,148.618c.537,7.042,1.733,14.358,6.229,20.051,4.603,5.829,12.233,8.607,19.513,7.335,4.059-.71,7.835-2.752,10.768-5.625,1.842-1.804-.987-4.632-2.828-2.828-5.764,5.647-14.772,6.32-21.307,1.569-6.394-4.648-7.813-13.149-8.373-20.501-.194-2.551-4.196-2.572-4,0h0Z"/><path class="j" d="M298.035,109.099c6.707-8.297,16.651-12.877,26.939-14.929,2.522-.503,1.455-4.359-1.063-3.857-10.878,2.17-21.616,7.19-28.705,15.958-.678.839-.82,2.008,0,2.828.702.702,2.146.844,2.828,0h0Z"/><path class="e" d="M356.691,129.153c5.311-6.636,11.101-13.438,13.252-15.96-1.247-1.145-5.487-4.144-7.51-5.492,2.468-2.158,8.396-8.292,11.55-11.34-3.628-3.417-8.869-6.243-12.583-9.142-4.122,10.861-17.804,42.722-23.494,52.851"/><path class="j" d="M358.106,130.567c4.324-5.396,8.765-10.698,13.252-15.96.672-.788.855-2.061,0-2.828-2.417-2.17-5.22-4.002-7.915-5.805l.405,3.141c4.044-3.564,7.68-7.591,11.55-11.34.755-.731.785-2.101,0-2.828-3.949-3.66-8.745-6.18-12.988-9.454-1.12-.864-2.537.14-2.938,1.195-5.537,14.562-11.888,28.91-18.561,42.983-1.501,3.165-3.019,6.333-4.731,9.391-1.259,2.249,2.195,4.268,3.454,2.019,3.496-6.246,6.396-12.854,9.328-19.377,3.599-8.009,7.08-16.073,10.444-24.184,1.344-3.241,2.677-6.488,3.924-9.768l-2.938,1.195c3.971,3.064,8.486,5.406,12.179,8.829v-2.828c-3.87,3.749-7.506,7.776-11.55,11.34-1.022.901-.599,2.47.405,3.141,2.411,1.613,4.942,3.237,7.106,5.179v-2.828c-4.486,5.262-8.928,10.563-13.252,15.96-.675.842-.823,2.006,0,2.828.699.699,2.149.847,2.828,0h0Z"/><path class="j" d="M330.157,75.383c1.561.925,3.445,1.311,5.241,1.384.906.037,1.829-.043,2.716-.231.388-.082.76-.206,1.126-.356.328-.134.653-.274.978-.414.096-.041.192-.093.292-.126-.459.153.043-.013.112-.04.971-.379,1.753-1.358,1.397-2.46-.305-.944-1.417-1.805-2.46-1.397-.309.121-.615.251-.921.381-.098.042-.195.084-.293.126-.007.003-.469.199-.194.085.243-.1-.069.027-.114.045-.091.036-.182.07-.275.102-.158.055-.318.103-.48.144-.176.044-.353.075-.531.11-.273.053.074-.021.16-.019-.083-.002-.172.019-.255.026-.373.032-.749.04-1.123.03-.181-.005-.361-.015-.541-.029-.09-.007-.181-.015-.271-.024-.063-.006-.38-.048-.072-.004s-.008-.003-.07-.013c-.089-.014-.177-.03-.266-.047-.196-.037-.392-.079-.586-.127-.331-.082-.659-.181-.978-.3-.07-.026-.415-.161-.099-.036.291.115.031.01-.03-.021-.15-.078-.299-.155-.445-.241-.901-.534-2.234-.233-2.736.718-.509.964-.244,2.166.718,2.736h0Z"/><path class="j" d="M341.904,56.923c-.361-1.621.245-5.235,3.267-5.307,3.96.339,3.821,4.756,2.323,6.719-1.226,1.607-4.493,2.056-5.59-1.412Z"/><path class="j" d="M350.93,83.751c-7.734,3.129-16.655,4.648-24.403.694-3.567-1.82-6.883-4.463-9.001-7.897-2.143-3.476-3.22-7.544-3.711-11.571-.697-5.728-.708-11.547-1.199-17.296-.217-2.546-4.219-2.569-4,0,.474,5.551.537,11.149,1.131,16.687.492,4.591,1.528,9.166,3.769,13.243,4.404,8.012,13.501,12.898,22.493,13.2,5.522.186,10.894-1.144,15.984-3.204,1.001-.405,1.707-1.332,1.397-2.46-.261-.949-1.453-1.804-2.46-1.397h0Z"/><path class="j" d="M334.615,103.3c1.244-1.22,2.517-2.408,3.817-3.567.642-.572,1.288-1.138,1.935-1.704.209-.183.576-.401.71-.613.28-.445-.809.15-.899-.213.037.15.328.345.432.457,2.337,2.512,4.607,5.078,6.623,7.858.633.873,1.739,1.301,2.736.718.862-.504,1.355-1.857.718-2.736-1.287-1.775-2.645-3.498-4.078-5.157-.64-.741-1.293-1.47-1.954-2.192-.697-.762-1.394-1.742-2.289-2.279-2.357-1.415-4.372.925-6,2.36-1.562,1.376-3.093,2.784-4.579,4.241-1.841,1.805.988,4.633,2.828,2.828h0Z"/><path class="j" d="M347.003,125.595c-.25-4.422-.459-8.853-.486-13.282,0-.154.072-.669-.01-.114.047-.316.109-.63.17-.943.165-.848.352-1.692.538-2.535.448-2.026.922-4.046,1.356-6.075.536-2.511-3.319-3.583-3.857-1.063-.433,2.029-.908,4.049-1.356,6.075-.329,1.489-.76,3.032-.839,4.562-.081,1.559.041,3.15.093,4.707.096,2.891.226,5.78.39,8.668.145,2.559,4.146,2.576,4,0h0Z"/><path class="j" d="M335.726,111.252c2.517.168,5.038.295,7.558.409,1.047.047,2.047-.954,2-2-.05-1.124-.879-1.949-2-2-2.52-.114-5.041-.24-7.558-.409-1.046-.07-2.046.97-2,2,.051,1.143.879,1.925,2,2h0Z"/><path class="j" d="M334.523,139.779c-1.806-13.708-2.925-27.517-4.227-41.279-.293-3.102-.585-6.204-.895-9.305-.147-1.478-1.593-2.532-3.009-1.727-3.109,1.767-6.221,3.529-9.332,5.292-1.022.579-1.141,1.754-.718,2.736,1.262,2.924,2.637,5.813,4.101,8.641l.718-2.736c-2.549,1.202-5.042,2.517-7.52,3.858-.798.432-1.118,1.414-.919,2.259,1.385,5.89,3.142,11.681,4.792,17.5.701,2.473,4.561,1.422,3.857-1.063-1.649-5.819-3.407-11.61-4.792-17.5l-.919,2.259c2.478-1.341,4.971-2.656,7.52-3.858,1.012-.477,1.178-1.846.718-2.736-1.463-2.829-2.839-5.717-4.101-8.641l-.718,2.736c3.111-1.763,6.223-3.525,9.332-5.292l-3.009-1.727c1.353,13.564,2.523,27.146,3.973,40.701.353,3.297.716,6.595,1.149,9.883.141,1.071.818,2,2,2,.971,0,2.142-.921,2-2h0Z"/><path class="e" d="M358.583,168.941c-2.72-11.461-6.208-26.263-8.583-36.373-.291-1.237-1.406-2.093-2.676-2.064-17.192.392-34.385.746-51.579,1.064-1.697.031-2.939,1.605-2.576,3.262,4.035,18.413,10.125,46.775,14.48,67.074.271,1.261,1.397,2.15,2.687,2.124,13.278-.271,37.501-.542,50.727-1.451"/><path class="j" d="M360.512,168.41c-1.806-7.609-3.603-15.219-5.397-22.831-.835-3.542-1.668-7.083-2.501-10.626-.383-1.627-.558-3.551-1.71-4.844-1.444-1.62-3.299-1.611-5.316-1.565-9.175.208-18.35.405-27.525.591-4.629.094-9.258.186-13.887.274-2.315.044-4.629.088-6.944.131-1.952.036-3.728.141-5.055,1.758-1.249,1.522-1.124,3.213-.729,5.019.341,1.558.682,3.117,1.021,4.676.73,3.349,1.458,6.699,2.184,10.049,1.623,7.49,3.239,14.982,4.853,22.475,1.582,7.348,3.161,14.696,4.738,22.045.366,1.705.732,3.41,1.098,5.115.388,1.807.736,3.51,2.391,4.598,1.388.912,3.01.745,4.585.715,1.399-.027,2.798-.052,4.197-.077,13.486-.24,26.987-.385,40.458-1.09,1.363-.071,2.726-.152,4.089-.244,2.554-.174,2.574-4.175,0-4-12.453.847-24.961.982-37.437,1.208-2.958.054-5.916.104-8.874.158-1.288.023-2.576.047-3.864.073-.468.009-.911.1-1.198-.33-.342-.511-.36-1.473-.489-2.074-1.446-6.741-2.894-13.482-4.343-20.222-2.939-13.67-5.883-27.34-8.865-41.001-.145-.666-.291-1.333-.437-1.999-.132-.603-.529-1.536-.453-2.154.145-1.19,2.566-.704,3.371-.72,4.381-.082,8.762-.166,13.143-.253,8.597-.17,17.193-.35,25.789-.538,2.149-.047,4.298-.095,6.447-.143,1.072-.024,2.151-.085,3.224-.073.636.007.856.135,1.034.756.898,3.129,1.499,6.378,2.246,9.546,1.698,7.209,3.398,14.418,5.105,21.625.398,1.679.795,3.357,1.194,5.036.594,2.504,4.452,1.444,3.857-1.063h0Z"/><path class="e" d="M375.367,203.253c2.551-1.541,4.053-4.547,4.503-7.525,1.027-6.789-2.784-13.69-7.847-17.974-3.991-3.376-8.605-4.051-13.674-3.145-.642.141-1.963.422-1.963.422-2.276.485-4.7,1.884-5.342,3.809-.642,1.925-.135,4.216,1.805,5.019-1.965.941-3.023,2.245-2.914,4.21.109,1.965,1.675,3.302,3.483,3.494-1.492.576-1.752,2.642-1.365,3.853s1.616,2.612,3.271,2.375c-.974.936-.988,2.404-.3,3.737.515.999,2.264,1.9,4.458,2.146,4.485.502,9.177,1.431,13.661.462.813-.176,1.554-.479,2.223-.883Z"/><path class="j" d="M376.377,204.98c4.002-2.556,5.802-7.377,5.654-11.993-.153-4.779-2.167-9.266-5.087-12.986-2.866-3.652-6.712-6.657-11.38-7.459-3.944-.678-8.67-.268-12.326,1.484-2.358,1.13-4.126,3.09-4.409,5.747-.25,2.351.814,4.777,3.012,5.814v-3.454c-2.372,1.195-4.111,3.331-3.888,6.107.216,2.684,2.26,4.867,4.934,5.252l-.478-3.655c-4.814,2.264-2.168,10.34,2.915,9.954l-1.414-3.414c-1.699,1.881-1.81,4.769-.181,6.764,1.504,1.842,3.988,2.317,6.218,2.587,5.228.632,11.575,2.012,16.429-.747,2.238-1.272.225-4.729-2.019-3.454-3.163,1.798-7.689,1.032-11.125.612-1.707-.209-3.611-.233-5.235-.836-.757-.281-2.109-1.156-1.259-2.097,1.069-1.184.424-3.554-1.414-3.414-1.229.093-2.13-1.92-.896-2.501,1.473-.693,1.206-3.413-.478-3.655-1.022-.147-1.96-.575-2.018-1.735-.062-1.233.944-1.818,1.927-2.313,1.28-.645,1.333-2.825,0-3.454-1.032-.487-1.315-1.532-.932-2.607.484-1.357,2.164-2.08,3.45-2.432,2.784-.762,5.829-1.185,8.681-.588,6.672,1.395,11.969,8.519,12.865,15.07.482,3.528-.364,7.905-3.566,9.951-2.163,1.382-.159,4.845,2.019,3.454Z"/><path class="j" d="M354.055,185.695c3.421-.768,6.91-1.223,10.355-1.87,1.03-.194,1.71-1.492,1.397-2.46-.356-1.101-1.356-1.604-2.46-1.397-3.445.647-6.934,1.103-10.355,1.87-1.022.229-1.718,1.467-1.397,2.46.347,1.072,1.365,1.643,2.46,1.397h0Z"/><path class="j" d="M354.393,193.338c3.554-.849,7.154-1.554,10.776-2.046,1.041-.141,1.699-1.528,1.397-2.46-.37-1.144-1.345-1.548-2.46-1.397-3.621.492-7.222,1.197-10.776,2.046-1.018.243-1.722,1.457-1.397,2.46.343,1.06,1.369,1.657,2.46,1.397h0Z"/><path class="j" d="M355.857,199.719c3.112-.928,6.401-1.322,9.589-1.902,1.032-.188,1.709-1.496,1.397-2.46-.358-1.106-1.355-1.598-2.46-1.397-3.188.581-6.477.975-9.589,1.902-1.002.299-1.734,1.417-1.397,2.46.328,1.014,1.386,1.717,2.46,1.397h0Z"/><path class="j" d="M262.173,93.605c5.452,6.324,10.607,12.892,15.447,19.696.625.879,1.745,1.297,2.736.718.869-.508,1.347-1.852.718-2.736-5.037-7.079-10.4-13.925-16.073-20.505-.706-.819-2.104-.724-2.828,0-.812.812-.707,2.008,0,2.828h0Z"/><path class="e" d="M293.835,112.953c-1.285-2.165-2.765-4.555-4.592-6.311-1.503-1.445-4.045-2.365-6.044-1.486-1.048.461-1.797,1.482-2.056,2.597-.33,1.423.082,2.922.846,4.136l1.076,1.388c-1.504-.707-3.345-1.543-4.093-1.78-2.651-.837-3.866-.951-6.733.142-2.687,1.025-5.632,3.808-7.301,9.581-1.711,5.92-2.023,11.346,2.267,17.317,1.536,2.138,4.226,3.787,6.735,4.583,2.06.654,3.967.448,5.186-1.517.553-.892,2.143-4.689,3.189-7.282.657-1.629,2.436-4.671,3.634-6.021.726-.818,3.564-2.484,5.236-3.263.616-.287,1.019-.896,1.215-1.547.604-2.005-.16-4.092-1.702-5.442-.22-.192-.439-.366-.659-.549l3.279-2.352c.558.166.986-.494.975-.976-.01-.439-.234-.841-.458-1.219Z"/><path class="j" d="M283.716,110.88c-.449-.739-.682-1.353-.688-2.051,0-.002.043-.628,0-.33.029-.199.091-.39.148-.582.08-.223.087-.24.019-.052.042-.086.089-.17.139-.251.048-.083.099-.163.155-.241-.101.126-.106.137-.015.033.062-.067.526-.441.237-.247.066-.044.54-.289.198-.146.177-.074.364-.114.548-.165.421-.117-.181-.037.223-.029.225.005.447-.003.673.015.145.014.129.011-.05-.008.096.017.192.036.287.059.225.051.44.125.661.19.379.111-.131-.094.251.1,1.311.669,2.401,1.921,3.316,3.201.57.797,1.099,1.623,1.611,2.458.229.374.458.749.679,1.129.076.126.148.255.216.386l-.033-.072c-.001-.112.009-.223.03-.334.167-.585.677-.826,1.529-.723-1.029-.163-2.202.264-2.46,1.397-.218.959.292,2.285,1.397,2.46,1.561.248,2.923-.511,3.391-2.071.395-1.314-.298-2.536-.951-3.624-1.128-1.879-2.337-3.734-3.807-5.366-1.378-1.529-3.172-2.764-5.246-3.08-2.411-.366-4.717.348-6.138,2.416-1.559,2.269-1.135,5.302.227,7.545.56.922,1.793,1.269,2.736.718.923-.54,1.28-1.81.718-2.736h0Z"/><path class="j" d="M266.866,121.752c1.376-4.608,4.913-10.083,10.413-8.667,2.135.55,4.124,1.595,6.101,2.549,1.215.586,2.401,1.22,3.521,1.974,1.218.82,2.844,1.839,3.445,3.237.386.899.491,2.084-.43,2.589-1.301.714-2.618,1.373-3.842,2.221-2.158,1.496-3.529,3.78-4.734,6.072-1.314,2.5-2.185,5.223-3.386,7.779-.312.665-.625,1.505-1.346,1.824-1.15.51-2.811-.314-3.823-.821-3.353-1.679-5.539-4.746-6.527-8.333-.96-3.482-.361-7.019.608-10.426.705-2.48-3.153-3.539-3.857-1.063-1.059,3.726-1.629,7.568-.877,11.41.776,3.965,3.006,7.932,6.248,10.376,2.707,2.041,7.026,4.112,10.328,2.268,1.379-.77,2.181-2.084,2.82-3.471.721-1.564,1.38-3.158,2.036-4.75.615-1.492,1.261-2.913,2.092-4.304.643-1.076,1.291-2.265,2.315-3.021,1.319-.973,2.81-1.626,4.224-2.431,1.742-.992,2.506-3.025,2.4-4.967-.224-4.102-3.938-6.736-7.215-8.597-2.406-1.365-5.041-2.621-7.644-3.553-3.497-1.252-7.301-.884-10.389,1.269-3.318,2.314-5.204,5.976-6.337,9.771-.738,2.472,3.121,3.528,3.857,1.063Z"/><path class="e" d="M100.353,47.925c-.53,4.42-.55,8.89-.83,12.99-.54,7.83-2.64,14.97-7.92,19.67-3.31,2.93-6.78,4.89-10.6,5.91l.99,3.36c.82,1.21,2.08,2.17,3.43,2.61.76.32,1.7.66,2.73,1.02,0,0,.03.01.1.03.15.06.3.11.45.15-2.37,6.08-7.37,9.1-12.58,9.89-10.78,1.63-21.89-2.74-30.18-11.17l-2.98-.19c3.01-1.12,6-2.66,6.88-4.78.47-1.14.74-2.37.92-3.58.22-1.5.3-2.57.38-4.27l.15-.17c-2.51-2.22-4.46-4.51-6.27-6.96,0,0-1.5-2.12-2.14-3.34l-.1-.68c-1.97.24-4.11-.4-4.97-.87-2.82-1.56-4.21-3.89-5.13-5.57-1.23-2.25-1.92-6.02-1.16-8.46-1.46-3.8-2.16-9.01-2.49-11.76-.36-3.12.09-8.44.69-11.53,1.21-6.14,2.94-9.68,7.26-14.99,9.43-11.01,20.18-13.23,27.48-13.23,10.86,0,18.77,2.17,25.88,9.51,5.21,4.16,8.26,10.56,9.76,17.03,1.18,5.11,1.58,12.89.57,19.42l-.32-.04Z"/><path class="k" d="M30.943,26.16c-.526,1.442-.954,2.955-1.322,4.55-.64,2.787-.861,5.659-.622,8.501.251,2.964.599,9.817,2.751,13.707.382-.827,1.273-2.08,3.525-2.515,1.311-.253,2.968-.037,4.157,1.076.401-3.6,2.291-11.734,3.961-15.312.779-1.669.243-4.989-1.913-5.823-3.407-1.318-7.906-3.783-9.682-5.951l-.1-.102c-.272.61-.523,1.232-.755,1.868Z"/><path class="j" d="M41.54,50.684c.475-2.943,1.15-5.861,1.959-8.73.381-1.35.794-2.697,1.298-4.007.46-1.196.94-2.239.934-3.559-.006-1.353-.371-2.777-1.125-3.909-.887-1.333-2.067-1.815-3.482-2.426-2.785-1.203-5.905-2.729-7.913-5.074-1.677-1.959-4.495.882-2.828,2.828,1.862,2.175,4.583,3.697,7.117,4.95.721.356,1.452.687,2.193,1.001.408.173.972.311,1.317.605.66.563.842,1.776.695,2.583s-.715,1.771-1.029,2.654c-.448,1.257-.829,2.538-1.182,3.824-.74,2.697-1.365,5.435-1.811,8.197-.172,1.065.276,2.152,1.397,2.46.953.262,2.287-.324,2.46-1.397h0Z"/><path class="j" d="M96.481,94.216c-2.321-.872-4.695-1.598-7.041-2.399-1.073-.366-2.146-.739-3.197-1.166-.941-.382-1.931-.959-2.523-1.802-.619-.883-1.749-1.295-2.736-.718-.874.511-1.341,1.848-.718,2.736.963,1.372,2.195,2.499,3.743,3.173,1.233.536,2.51.991,3.78,1.432,2.538.88,5.113,1.656,7.628,2.6,1.011.38,2.193-.422,2.46-1.397.308-1.122-.382-2.079-1.397-2.46h0Z"/><path class="j" d="M39.585,95.412c3.451-1.041,7.095-2.172,9.94-4.469,1.5-1.211,2.31-2.79,2.786-4.64.563-2.186.73-4.49.831-6.738.049-1.08-.954-2-2-2-1.124,0-1.951.917-2,2-.091,2.023-.181,3.555-.629,5.434-.115.484-.267.952-.422,1.424-.199.606.08-.097-.096.241-.079.151-.17.291-.257.436-.214.357.054-.005-.051.073-.137.102-.251.279-.374.4-.116.114-.236.223-.359.329-.071.062-.467.357-.124.108-2.58,1.877-5.206,2.609-8.308,3.545-1.034.312-1.688,1.401-1.397,2.46.282,1.025,1.422,1.71,2.46,1.397h0Z"/><path class="j" d="M79.931,70.743c-.13.076-.262.15-.398.216-.058.029-.168.055-.214.1.275-.113.341-.141.198-.084-.038.015-.077.03-.115.045-.321.121-.651.221-.984.305-.195.049-.392.092-.59.13-.089.017-.179.031-.268.047-.267.049.015-.007.125-.012-.388.018-.772.079-1.162.088-.357.008-.714,0-1.07-.03-.086-.007-.172-.019-.258-.025-.268-.021.412.073.154.02-.18-.037-.362-.065-.541-.109-.16-.039-.318-.085-.474-.138-.093-.031-.183-.067-.275-.101-.218-.08-.087-.028.052.026-.559-.215-1.099-.484-1.657-.704-.975-.386-2.238.422-2.46,1.397-.262,1.152.353,2.047,1.397,2.46.357.141-.182-.085.043.014.098.043.197.086.295.129.327.143.655.285.985.421.374.155.752.292,1.148.381.91.205,1.866.289,2.798.255,1.812-.066,3.711-.45,5.291-1.376.903-.529,1.303-1.827.718-2.736s-1.771-1.284-2.736-.718h0Z"/><path class="j" d="M69.709,55.517c.372-1.637-.224-5.292-3.278-5.378-4.004.324-3.884,4.789-2.378,6.78,1.232,1.63,4.532,2.099,5.657-1.402Z"/><path class="j" d="M93.073,54.489c.335-1.64-.225-5.309-3.023-5.407-3.666.31-3.539,4.789-2.153,6.792,1.135,1.64,4.159,2.122,5.175-1.384Z"/><path class="j" d="M77.779,60.594c.296.455.582.916.861,1.381.301.5.615,1.005.856,1.537l-.202-.478c.052.124.092.246.113.379l-.071-.532c.006.063.006.119.001.182l.071-.532c-.005.039-.014.077-.028.114l.202-.478c-.014.037-.032.072-.055.105l.313-.405c-.093.118-.204.219-.321.313l.405-.313c-.101.074-.204.136-.318.187l.478-.202c-.154.062-.311.097-.475.12l.532-.071c-.274.035-.549.062-.82.113-.469.088-.962.52-1.195.919-.251.429-.357,1.061-.202,1.541.157.484.457.951.919,1.195.498.263.987.306,1.541.202.04-.007.079-.014.119-.02l-.532.071c.374-.05.767-.064,1.125-.193.559-.201,1.062-.488,1.476-.924.302-.319.565-.693.674-1.126.124-.494.109-.842.018-1.331-.08-.431-.292-.829-.497-1.214-.467-.878-.993-1.727-1.535-2.56-.283-.435-.687-.779-1.195-.919-.479-.132-1.116-.072-1.541.202-.427.275-.803.685-.919,1.195s-.093,1.089.202,1.541h0Z"/><path class="j" d="M54.606,79.548c-2.438-1.905-4.638-4.074-6.587-6.476-.222-.273-.441-.549-.656-.827.223.288-.147-.196-.154-.204-.096-.128-.192-.256-.288-.384-.178-.24-.349-.485-.518-.731-.632-.921-1.264-1.852-1.794-2.836-.497-.922-1.85-1.289-2.736-.718-.937.604-1.249,1.75-.718,2.736,1.081,2.007,2.489,3.872,3.914,5.643,1.98,2.46,4.219,4.681,6.708,6.625.823.643,2.037.862,2.828,0,.659-.718.881-2.141,0-2.828h0Z"/><path class="j" d="M39.891,49.319c-2.622-1.596-6.177-1.231-8.484.773-1.78,1.546-2.288,4.036-2.192,6.295.215,5.047,3.093,10.67,7.77,12.977,2.633,1.298,6.026,1.564,8.675.212.962-.491,1.241-1.842.718-2.736-.572-.977-1.771-1.21-2.736-.718-.841.429-2.134.405-2.998.242-.549-.103-1.073-.264-1.602-.439-.406-.134.246.15-.1-.046-.295-.167-.588-.331-.871-.517-1.786-1.179-3.15-3.126-3.946-4.965-.47-1.087-.779-2.334-.876-3.49-.056-.668-.08-1.36.005-2.027-.01.074.101-.493.135-.617.048-.176.429-.963.095-.348.084-.155.164-.31.252-.463.05-.087.343-.414.057-.095.425-.474.44-.494.999-.745.901-.405,2.08-.448,3.081.161,2.205,1.342,4.217-2.116,2.019-3.454h0Z"/><path class="j" d="M59.236,86.082c8.677,3.556,18.489,4.767,27.149.486,4.059-2.007,7.78-5.063,10.283-8.853,2.476-3.749,3.773-8.208,4.404-12.62.853-5.961.547-12.016,1.375-17.98.148-1.068-.26-2.148-1.397-2.46-.935-.257-2.311.32-2.46,1.397-1.256,9.044.142,19.016-4.093,27.423-3.682,7.31-11.725,11.738-19.784,11.869-5.014.081-9.803-1.229-14.413-3.119-1-.41-2.199.444-2.46,1.397-.315,1.147.393,2.049,1.397,2.46h0Z"/><path class="g" d="M92.648,13.741c3.747,4.172,6.528,10.31,7.68,15.816,1.068,5.106,1.3,12.83.191,19.336"/><path class="j" d="M91.267,15.084c7.717,8.371,9.092,21.523,7.475,32.349-.159,1.067.267,2.15,1.397,2.46.944.259,2.3-.322,2.46-1.397,1.841-12.33.28-26.713-8.504-36.241-1.749-1.897-4.572.937-2.828,2.828h0Z"/><path class="j" d="M33.452,52.983c-2.112-5.647-2.867-11.971-2.361-17.96.252-2.979.776-5.937,1.704-8.784.911-2.794,2.381-5.317,4.115-7.679,3.879-5.283,9.183-9.746,15.297-12.203,4.822-1.938,9.825-2.499,14.983-2.303,6.986.266,13.742,1.956,19.209,6.504,1.965,1.635,4.81-1.18,2.828-2.828-5.392-4.487-11.716-6.756-18.652-7.448-5.794-.578-11.721-.348-17.296,1.45-6.765,2.182-12.761,6.382-17.406,11.736-4.549,5.244-7.417,11.218-8.387,18.105-1.051,7.459-.551,15.365,2.108,22.473.378,1.011,1.352,1.701,2.46,1.397.971-.267,1.777-1.443,1.397-2.46h0Z"/><path class="i" d="M35.524,205.938c-3.47-.635-6.272-1.255-7.347-1.577-5.036-1.51-10.026-3.513-14.322-6.545-3.111-2.196-5.697-5.132-7.482-8.496-3.9-7.35-3.797-16.091-3.599-24.409.158-6.663.317-13.333.94-19.968.574-6.115,1.542-12.194,2.895-18.185.697-3.084,1.976-7.188,3.265-10.075,4.571-10.232,12.025-17.822,23.514-21.8l9.494-3.299,1.746-.607c8.4,9.346,20.136,14.291,31.492,12.576,5.215-.788,10.23-3.821,12.597-9.915,1.948.529,8.372,2.286,9.802,2.807,5.435,1.981,10.108,4.994,13.343,9.892,2.483,3.76,4.032,8.06,5.251,12.398,4.01,14.271,5.053,29.424,7.023,44.079.664,4.941,1.536,9.904,1.794,14.876.174,3.36.075,7.751-2.615,10.211,0,0-10.636,6.094-15.087,9.152-2.501-1.032-5.096-1.946-7.878-2.732l-28.429,13.623h-19.355c-4.65.001-11.652-1.021-17.042-2.007Z"/><path class="e" d="M149.907,225.179c-2.974-9.787-10.481-15.929-19.323-21.073-8.777-5.106-16.033-9.218-25.433-11.872l-52.585,15.711c-7.643.002-21.644-2.761-24.389-3.583-3.66-1.097-7.296-2.455-10.658-4.279-2.414,8.26-3.327,14.418-3.376,19.22-.076,7.433,1.916,11.616,3.61,15.316,1.477,3.233,4.004,5.863,6.838,8.613,1.858,1.802,4.711,3.075,7.442,4.831,2.722,1.737,17.189,7.944,21.648,9.719,1.691,1.654,2.221,5.361,2.276,9.078h40.18v-3.15c.1-5.545.421-23.361.482-26.724,0,0,.008-.449.021-1.175,5.209,2.825,10.423,5.645,15.631,8.471.409.222.827.452,1.1.835.298.426.358.972.401,1.492.554,6.632-.06,12.037-.784,18.576l-.235,1.675h37.63c.479-9.185.959-18.37,1.439-27.555.245-4.681-.553-9.641-1.916-14.126Z"/><path class="j" d="M104.62,194.163c6.022,1.72,11.685,4.267,17.178,7.253,5.119,2.783,10.361,5.61,14.996,9.164,4.073,3.123,7.602,6.95,9.832,11.606,2.745,5.733,3.447,12.343,3.12,18.612-.425,8.128-.849,16.256-1.274,24.384-.134,2.573,3.866,2.565,4,0,.399-7.63.797-15.261,1.196-22.891.358-6.848-.109-13.698-2.714-20.131-4.567-11.276-15.102-17.488-25.238-23.151-6.382-3.566-12.986-6.69-20.032-8.703-2.48-.708-3.538,3.15-1.063,3.857h0Z"/><path class="j" d="M52.566,205.945c-4.856-.019-9.719-.761-14.495-1.578-3.713-.635-7.45-1.293-11.039-2.456-6.005-1.945-12.102-4.726-16.269-9.626-4.017-4.725-5.51-10.899-5.91-16.958-.452-6.846-.063-13.806.226-20.653.3-7.114.942-14.194,2.204-21.206,1.103-6.124,2.496-12.293,5.318-17.881,2.306-4.565,5.363-8.673,9.259-12.005,6.186-5.29,14.023-7.453,21.552-10.069,2.416-.84,1.377-4.705-1.063-3.857-7.006,2.435-14.348,4.472-20.445,8.851-9.707,6.972-15.068,17.667-17.538,29.141-1.571,7.296-2.557,14.71-3.033,22.157-.468,7.315-.754,14.719-.621,22.05.122,6.722,1.025,13.671,4.533,19.542,3.419,5.722,8.858,9.552,14.885,12.166,4.857,2.107,9.776,3.377,14.958,4.322,5.738,1.046,11.628,2.037,17.476,2.06,2.574.01,2.578-3.99,0-4h0Z"/><line class="g" x1="40.154" y1="94.101" x2="38.586" y2="92.866"/><path class="j" d="M86.798,93.079c-1.311,3.281-3.795,5.914-7.019,7.365-3.32,1.494-7.221,1.636-10.794,1.331-8.266-.706-15.86-4.997-21.628-10.807-1.816-1.829-4.645.999-2.828,2.828,5.258,5.296,11.85,9.391,19.15,11.134,6.408,1.53,14.089,1.631,19.86-1.971,3.35-2.091,5.664-5.183,7.116-8.817.401-1.003-.438-2.197-1.397-2.46-1.139-.313-2.058.39-2.46,1.397h0Z"/><path class="j" d="M124.729,189.316c2.619-2.534,3.257-6.255,3.254-9.756-.003-4.341-.69-8.683-1.308-12.969-1.294-8.967-2.186-17.985-3.422-26.96-1.202-8.727-2.655-17.627-5.64-25.947-1.413-3.939-3.259-7.756-5.988-10.959-2.368-2.78-5.417-4.978-8.691-6.57-4.496-2.186-9.449-3.301-14.253-4.6-2.488-.673-3.55,3.185-1.063,3.857,3.456.934,6.993,1.764,10.369,2.961,3.134,1.111,6.195,2.765,8.677,4.992,2.792,2.506,4.758,5.7,6.221,9.133,3.241,7.603,4.691,16.105,5.936,24.229,1.28,8.358,2.087,16.779,3.192,25.161.63,4.782,1.469,9.545,1.826,14.359.245,3.308.679,7.709-1.938,10.24-1.854,1.793.977,4.62,2.828,2.828h0Z"/><path class="j" d="M36.414,142.897c-2.151,10.631-2.639,21.532-1.347,32.303.129,1.072.827,2,2,2,.981,0,2.13-.92,2-2-1.249-10.41-.876-20.962,1.204-31.24.509-2.513-3.346-3.588-3.857-1.063h0Z"/><path class="j" d="M98.915,137.689c.904,7.005.749,14.032.556,21.075-.071,2.575,3.929,2.573,4,0,.194-7.043.349-14.07-.556-21.075-.138-1.071-.82-2-2-2-.973,0-2.139.921-2,2h0Z"/><path class="h" d="M9.242,226.973c-3.559,2.462-5.881,6.476-6.764,10.713-.883,4.237-.511,8.715.855,12.831,2.834,8.548,11.661,16.343,52.626,16.343-.056-3.717-.585-7.424-2.276-9.078-4.46-1.775-18.926-7.981-21.649-9.719-2.732-1.756-5.584-3.029-7.442-4.831-2.834-2.75-5.361-5.38-6.838-8.613-1.245-2.722-2.657-5.705-3.28-10.062l-1.264.056-3.967,2.36Z"/><path class="j" d="M12.2,222.886c-2.065,1.229-4.227,2.338-6,3.985-3.373,3.132-5.323,7.539-5.944,12.049-.761,5.523.128,11.956,3.321,16.69,4.932,7.313,14.507,9.82,22.695,11.222,9.786,1.675,19.778,2.022,29.687,2.029,2.574.002,2.578-3.998,0-4-8.507-.006-17.075-.248-25.513-1.406-2.966-.407-5.921-.94-8.824-1.674-1.219-.308-2.429-.653-3.622-1.048-.494-.163-.984-.335-1.472-.516-.248-.092-.496-.187-.742-.285-.084-.033-.82-.34-.497-.201-1.655-.712-3.261-1.56-4.734-2.602-.159-.112-.315-.228-.472-.344-.014-.01.195.167-.1-.08-.297-.248-.594-.495-.879-.757-.517-.476-.998-.986-1.453-1.521-.105-.123-.205-.251-.306-.378.262.328.087.121-.046-.072-.176-.257-.355-.51-.522-.773-.33-.524-.628-1.068-.893-1.627-.055-.116-.105-.235-.161-.35-.227-.466.106.282-.013-.025-.111-.286-.225-.57-.326-.86-.676-1.92-1.139-3.94-1.302-5.97-.38-4.706.598-9.785,3.762-13.443,1.778-2.055,4.078-3.221,6.377-4.589,2.21-1.315.201-4.774-2.019-3.454h0Z"/><path class="j" d="M14.068,205.294c-1.378,5.919-2.393,12.137-1.728,18.225.417,3.818,1.528,7.328,3.096,10.817,2.576,5.73,7.055,10.466,12.475,13.602,1.792,1.037,3.527,2.151,5.384,3.068,1.999.987,4.033,1.906,6.068,2.816,4.56,2.039,9.148,4.038,13.788,5.889l-.883-.514c1.73,1.825,1.644,5.339,1.691,7.663.052,2.571,4.052,2.579,4,0-.067-3.311-.229-7.556-2.572-10.17-.718-.801-1.813-1.091-2.79-1.493-.91-.375-1.817-.754-2.723-1.138-4.723-1.999-9.45-4.024-14.064-6.265-1.968-.956-3.793-2.108-5.688-3.201-1.583-.913-3.125-1.814-4.441-3.093-1.352-1.313-2.691-2.661-3.869-4.134-1.498-1.873-2.515-4.034-3.438-6.231.133.317-.092-.228-.126-.315-.072-.182-.144-.363-.213-.545-.168-.441-.328-.886-.476-1.334-.3-.904-.555-1.823-.762-2.753-1.444-6.482-.363-13.415,1.13-19.831.583-2.504-3.273-3.573-3.857-1.063h0Z"/><path class="j" d="M114.989,265.185c.39-3.516.791-7.034.937-10.571.071-1.721.082-3.444.018-5.165-.063-1.682.091-3.868-.845-5.342-.89-1.399-2.792-2.082-4.188-2.839-1.653-.896-3.306-1.792-4.96-2.687-3.45-1.869-6.901-3.737-10.35-5.609-2.263-1.228-4.285,2.224-2.019,3.454,3.09,1.677,6.181,3.351,9.272,5.025,1.51.818,3.019,1.635,4.529,2.453.791.428,1.581.857,2.372,1.286.472.256,1.669.635,1.974,1.08.247.361.122,1.352.148,1.776.051.849.084,1.7.1,2.55.029,1.559-.002,3.12-.08,4.677-.167,3.315-.542,6.614-.907,9.911-.119,1.075,1.005,2,2,2,1.18,0,1.88-.922,2-2h0Z"/><path class="j" d="M94.555,236.982c-.17,9.436-.34,18.872-.51,28.308-.046,2.575,3.954,2.575,4,0,.17-9.436.34-18.872.51-28.308.046-2.575-3.954-2.575-4,0h0Z"/><path class="j" d="M62.38,69.161c-.346.635-.615,1.316-.88,1.986-.245.619-.47,1.248-.664,1.885-.149.488-.054,1.105.202,1.541.243.415.718.811,1.195.919.512.117,1.087.091,1.541-.202.445-.287.763-.682.919-1.195.245-.805.537-1.597.863-2.373l-.202.478c.147-.346.299-.691.479-1.021.253-.464.344-1.025.202-1.541-.128-.464-.486-.967-.919-1.195-.464-.245-1.026-.368-1.541-.202-.488.158-.944.457-1.195.919h0Z"/><path class="j" d="M84.026,56.442c-1.563-2.517-1.947-6.525,1.011-7.886,1.557-.716,3.31-1.021,5.015-1.04,1.553-.017,3.247.098,4.576.881,2.52,1.485,2.909,4.235,2.158,6.666-.339,1.099-.957,2.073-1.861,2.889-.869.785-2.118,1.329-3.41,1.501-1.584.212-2.977.15-4.396-.33-.197-.067-.382-.144-.712-.328-.192-.107-.683-.433-.702-.447-.671-.531-1.21-1.195-1.678-1.905-1.41-2.141-4.876-.139-3.454,2.019,1.117,1.696,2.526,3.221,4.399,4.08,1.81.829,3.784,1.07,5.761.968,4.288-.221,7.955-2.493,9.599-6.531,1.581-3.885.84-8.544-2.534-11.222-3.691-2.93-9.526-2.806-13.733-1.105-2.439.986-4.502,2.904-5.034,5.585-.563,2.84.019,5.771,1.542,8.224,1.355,2.182,4.817.176,3.454-2.019Z"/><path class="j" d="M75.766,58.786c2.249-4.246,1.962-10.429-2.758-12.908-2.184-1.147-4.931-1.502-7.366-1.439-2.366.061-4.988.434-7.037,1.697-1.938,1.195-3.538,3.109-4.108,5.34-.495,1.938-.268,4.155.439,6.012,1.536,4.034,5.121,6.594,9.399,6.945,2.253.185,4.647-.137,6.714-1.061s3.617-2.64,4.717-4.585c1.268-2.244-2.186-4.262-3.454-2.019-1.438,2.544-3.355,3.539-6.117,3.675-1.381.068-2.857-.037-4.035-.571-1.207-.547-2.154-1.379-2.797-2.395-1.289-2.039-1.784-4.994.197-7.024,2.279-2.335,6.567-2.38,9.542-1.701,1.519.347,3.071.924,3.713,2.498.717,1.758.359,3.889-.503,5.517-1.204,2.273,2.247,4.297,3.454,2.019Z"/><path class="j" d="M80.461,49.725l-5.353.203c-.525.02-1.038.209-1.414.586-.347.347-.608.916-.586,1.414.047,1.05.88,2.043,2,2l5.353-.203c.525-.02,1.038-.209,1.414-.586.347-.347.608-.916.586-1.414-.047-1.05-.88-2.043-2-2h0Z"/><path class="j" d="M56.448,50.315c-2.418-.822-4.835-1.645-7.253-2.467-.991-.337-2.23.387-2.46,1.397-.253,1.109.335,2.099,1.397,2.46,2.418.822,4.835,1.645,7.253,2.467.991.337,2.23-.387,2.46-1.397.253-1.109-.335-2.099-1.397-2.46h0Z"/><path class="e" d="M111.112,194.926c-.984-4.108-3.157-8.06-6.607-10.357-3.399-2.262-7.609-2.914-11.589-2.709-2.165.112-10.202.707-11.017,3.446l-.324,1.271c-2.547-.393-5.148-.471-7.716-.352-3.948.184-8.08.404-11.396,2.744-1.559,1.1-2.922,2.456-4.201,3.865-1.032,1.137-1.453,2.515-1.612,4.111-.141,1.412-.083,2.953.193,4.461.433,2.363,1.405,4.641,2.998,6.206,1.441,1.416,3.321,2.328,5.275,2.842,3.335.879,6.781.692,10.181.437,1.161-.087,2.318.16,3.345.708,1.87.998,4.159,2.175,5.624,3.086,1.479.919,3.322,1.214,5.031.883.648-.125,1.309-.36,1.75-.851.441-.492.587-1.294.182-1.816,0,0-.606-.782-1.212-1.563.856.444,1.822.944,1.822.944.627.325,1.287.625,1.991.677.704.052,1.467-.188,1.877-.762.411-.574.778-1.979.267-2.632,0,0-.006-.007-.006-.008,6.46-.123,10.655-2.83,10.655-2.83,2.591-1.192,4.369-3.637,4.782-5.659.413-2.023.187-4.134-.293-6.141Z"/><path class="j" d="M83.828,185.837c-.052.148-.1.145.052.002.137-.129.129-.135.433-.297.611-.325,1.191-.525,1.884-.718,1.351-.375,2.743-.608,4.136-.758,3.577-.387,7.261-.419,10.664.91,4.029,1.574,6.601,5.141,7.833,9.18.653,2.143,1.222,4.742.501,6.938-.57,1.737-1.979,2.98-3.543,3.818-.106.057-.212.098-.32.149.676-.32-.088.031-.255.096-.695.272-1.4.52-2.109.751-2.417.786-4.896,1.355-7.412,1.712-1.07.152-1.657,1.514-1.397,2.46.316,1.151,1.386,1.549,2.46,1.397,3.725-.528,7.649-1.435,11.051-3.111,2.151-1.059,3.995-2.965,4.968-5.157,1.222-2.754.954-5.955.266-8.817-1.191-4.953-4.038-9.712-8.606-12.203-4.2-2.29-9.054-2.63-13.729-2.163-3.516.352-9.336.796-10.734,4.746-.861,2.431,3.002,3.477,3.857,1.063h0Z"/><path class="j" d="M86.363,197.168c2.098,1.286,4.122,2.692,6.023,4.255.965.793,1.903,1.617,2.813,2.472.455.427.903.862,1.343,1.305.22.221.431.453.655.669.007.007.31.327.136.121-.166-.197.109.181.138.227.013.02.126.287.051.095-.085-.218.037.156.049.206.022.093.048.186.061.281-.006-.044-.028-.285-.024-.052,0,.053-.017.453.01.215.024-.214-.025.092-.03.112-.013.062-.055.368-.004.058-.012.072-.099.283-.02.073-.06.161-.327.144.004.019.063-.024.249-.163.106-.047-.12.097.017.017.119.006-.119.014-.234.002-.353.01-.023.002-.326-.022-.101.002.248.026-.144-.031-.2-.045-.219-.054-.436-.112-.649-.184-.12-.041-.24-.085-.358-.131.032.013.259.117.056.021-.177-.084-.354-.168-.526-.263-.391-.215-.743-.479-1.106-.738-.95-.679-1.909-1.347-2.88-1.995-2.243-1.497-4.559-2.877-6.899-4.215-2.239-1.279-4.256,2.176-2.019,3.454,2.375,1.357,4.725,2.758,6.998,4.281,1.984,1.328,3.85,3.029,6.227,3.606,1.429.347,2.982.292,4.143-.707,1.057-.908,1.56-2.35,1.47-3.723-.097-1.482-.737-2.656-1.757-3.706-1.026-1.055-2.093-2.069-3.199-3.04-2.572-2.26-5.341-4.303-8.26-6.093-2.201-1.349-4.212,2.109-2.019,3.454h0Z"/><path class="j" d="M94.247,210.574c.172.265-.017.024.006-.008-.025-.189-.036-.208-.032-.057-.007.12-.004.132.009.035.058-.168-.049.195-.059.232-.024.096-.054.19-.088.283l.058-.141-.079.145.098-.117c-.017-.094.141.036-.097.056.295-.026-.263-.071-.073-.02.172.046-.186-.04-.154-.028-1.375-.496-2.685-1.312-3.947-2.088-2.799-1.721-5.487-3.611-8.382-5.173-2.266-1.223-4.288,2.23-2.019,3.454,3.692,1.992,7.046,4.542,10.733,6.539,1.902,1.03,4.23,1.953,6.211.543,1.637-1.166,2.406-3.918,1.27-5.673-.586-.906-1.774-1.28-2.736-.718-.901.527-1.307,1.826-.718,2.736h0Z"/><path class="j" d="M100.96,205.603c4.235-1.653,2.075-6.136.288-8.856-2.069-3.149-4.808-5.796-7.964-7.845-7.021-4.56-15.588-5.352-23.737-4.363-4.333.526-7.868,2.084-11.021,5.137-1.463,1.416-2.823,2.876-3.443,4.858-.518,1.655-.592,3.528-.453,5.247.292,3.614,1.544,7.383,4.396,9.784,3.346,2.817,7.83,3.575,12.086,3.535,2.289-.021,4.768-.687,6.876.414,1.896.991,3.729,2.096,5.616,3.098,2.029,1.077,4.59,1.44,6.804.733,2.34-.748,3.843-3.141,2.549-5.454-1.257-2.247-4.714-.232-3.454,2.019-.474-.847.405-.309-.348-.36-.289-.02-.751.137-1.056.147-.631.021-1.249-.066-1.847-.27-1.39-.474-2.709-1.484-4.009-2.18-1.37-.734-2.767-1.633-4.272-2.065-1.793-.515-3.636-.194-5.462-.119-3.285.136-6.839.018-9.741-1.715-2.373-1.417-3.504-3.819-3.992-6.461-.475-2.574-.358-5.317,1.498-7.285,2.284-2.421,4.675-4.177,7.983-4.846,3.144-.636,6.552-.692,9.746-.536,3.223.158,6.45.779,9.422,2.062,2.924,1.263,5.61,3.075,7.835,5.354,1.122,1.149,2.105,2.397,2.94,3.769.389.638.802,1.314,1.084,2.007.075.185.117.403.198.583.203.45-.147-.032.415-.251-1.006.393-1.704,1.342-1.397,2.46.264.959,1.448,1.792,2.46,1.397h0Z"/></g></svg>