<?xml version="1.0" encoding="UTF-8"?><svg id="b" xmlns="http://www.w3.org/2000/svg" width="261.698" height="202.495" viewBox="0 0 261.698 202.495"><defs><style>.d{fill:#fff;}.e{fill:#211715;}.f{fill:#f2635f;}.g{fill:#645d5c;}</style></defs><g id="c"><path class="f" d="M21.034,130.522h-11.933c-3.693,0-6.686,2.993-6.686,6.686v16.203c0,3.692,2.991,6.684,6.683,6.684,7.637,0,16.134,0,16.134,0"/><path class="e" d="M21.034,128.122h-10.755c-2.276,0-4.481.274-6.39,1.656-2.483,1.798-3.847,4.548-3.874,7.605-.035,3.843,0,7.688,0,11.531,0,1.458-.023,2.918,0,4.375.048,3.086,1.454,5.876,4.004,7.644,1.799,1.247,3.839,1.562,5.981,1.562,2.365,0,4.729,0,7.094,0,2.713,0,5.425,0,8.138,0,3.089,0,3.094-4.8,0-4.8-1.857,0-3.714,0-5.571,0s-3.73,0-5.596,0c-1.822,0-3.849.254-5.651-.034-2.118-.339-3.56-2.211-3.599-4.294-.022-1.158,0-2.319,0-3.477v-11.593c0-1.358.03-2.636.929-3.766,1.094-1.374,2.612-1.609,4.241-1.609h11.049c3.089,0,3.094-4.8,0-4.8h0Z"/><path class="f" d="M52.966,85.129l44.943-6.288c1.6-.214,4.135-2.344,4.553-3.904,0,0,7.9-29.484,15.77-58.855.651.201,1.344.309,2.061.309,3.158,0,6.454,0,9.858.003l-15.22,56.79c-1.13,4.2-1.7,8.52-1.7,12.87v35.355c-13.587.206-22.242,11.115-21.248,23.043,0,0,0,7.874,0,15.044H14.059c0,.311,1.471-26.08,2.655-47.376.714-12.839,10.41-23.376,23.145-25.158l13.107-1.834"/><path class="g" d="M148.88,121.346c-.138.348-.274.698-.406,1.049-.707,1.878-2.489,3.131-4.496,3.131h-.135c-3.541,0-6.03-.776-4.135-4.122h-.507s-12.512,0-25.744-.002c-13.717.092-22.474,11.056-21.474,23.05v16.643c3.885,0,6.262,0,6.262,0,13.153,0,70.349,0,108.777,0,15.651-25.222,31.68-51.052,31.68-51.052,0,0,4.217-6.775,7.485-12.02-10.478-8.985-24.351-14.465-40.375-14.465-27.29,0-48.237,15.908-56.931,37.788Z"/><path class="e" d="M247.863,90.786c-3.279,5.268-6.558,10.536-9.838,15.804l-1.396,2.242c-.685,1.101-.235,2.642.861,3.284,1.148.672,2.597.242,3.284-.861,3.279-5.268,6.558-10.536,9.838-15.804l1.396-2.242c.685-1.101.235-2.642-.861-3.284-1.148-.672-2.597-.242-3.284.861h0Z"/><path class="e" d="M53.604,87.444c6.874-.962,13.748-1.923,20.621-2.885,7.976-1.116,15.96-2.188,23.93-3.348,3.313-.482,6.001-3.319,6.842-6.457l2.183-8.146c2.6-9.703,5.2-19.406,7.8-29.109,1.797-6.707,3.748-13.394,5.396-20.14.027-.11.059-.22.088-.329.8-2.987-3.829-4.262-4.629-1.276-1.475,5.506-2.951,11.012-4.426,16.517-2.628,9.808-5.256,19.615-7.884,29.423l-2.703,10.09c-.6,2.238-.921,4.253-3.562,4.745-2.176.405-4.407.617-6.599.923l-14.257,1.995c-7.865,1.1-15.8,1.978-23.63,3.306-.147.025-.297.042-.445.062-1.285.18-1.988,1.819-1.676,2.952.38,1.383,1.663,1.857,2.952,1.676h0Z"/><path class="e" d="M52.328,82.815c-4.124.577-8.247,1.154-12.371,1.731-6.876.962-13.289,4.1-17.987,9.276-2.697,2.971-4.758,6.436-6.088,10.222-1.452,4.134-1.587,8.437-1.828,12.766-.506,9.092-1.012,18.184-1.521,27.275-.203,3.624-.406,7.247-.611,10.871-.062,1.093-.124,2.187-.187,3.28-.02.353-.199,2.059.01.625l4.714.638v-.003c-.083-1.294-1.044-2.4-2.4-2.4-1.235,0-2.483,1.1-2.4,2.4v.003c.076,1.187.854,2.211,2.081,2.357,1.061.126,2.459-.524,2.633-1.719.577-3.963.514-8.1.738-12.092.479-8.541.955-17.083,1.43-25.625.127-2.282.254-4.563.381-6.845.11-1.978.123-3.99.464-5.946.649-3.727,2.088-7.202,4.265-10.295,3.962-5.628,10.221-9.104,16.967-10.073,4.326-.622,8.657-1.211,12.986-1.817,1.285-.18,1.988-1.819,1.676-2.952-.38-1.383-1.663-1.857-2.952-1.676h0Z"/><path class="e" d="M115.631,118.524v-20.673c0-6.073-.417-12.339.44-18.365.598-4.201,1.889-8.333,2.987-12.427l10.435-38.936c.991-3.697,1.981-7.393,2.972-11.09.801-2.987-3.828-4.261-4.629-1.276-2.569,9.586-5.138,19.171-7.707,28.757-2.626,9.799-5.52,19.567-7.869,29.437-1.704,7.161-1.43,14.452-1.43,21.753v22.821c0,3.089,4.8,3.094,4.8,0h0Z"/><path class="e" d="M94.383,144.452c-.552-7.256,2.704-14.365,9.129-18.067,3.637-2.096,7.548-2.583,11.676-2.583,5.307,0,10.614.001,15.921.002,2.697,0,5.394,0,8.091,0,3.089,0,3.094-4.8,0-4.8-8.004,0-16.008,0-24.012-.002-4.86,0-9.516.688-13.819,3.08-3.631,2.018-6.706,5.076-8.759,8.686-2.35,4.131-3.388,8.952-3.028,13.684.098,1.293,1.033,2.4,2.4,2.4,1.223,0,2.499-1.1,2.4-2.4h0Z"/><path class="f" d="M217.535,73.062c-5.062-18.89-10.123-37.78-15.185-56.671,3.49,0,6.839,0,10.004,0,.094.367.146.562.146.562,5.588,20.854,11.176,41.709,16.764,62.563-.082-.305-.163-.61-.242-.924-3.462-1.223-7.061-2.2-10.786-2.91-.234-.874-.468-1.748-.702-2.621Z"/><path class="f" d="M200.201,16.391c-19.402,0-41.806,0-60.889,0"/><path class="e" d="M210.186,17.592c4.341,16.202,8.683,32.405,13.024,48.607,1.247,4.652,2.493,9.304,3.74,13.956l4.629-1.276-.518-1.934c-.799-2.981-5.43-1.716-4.629,1.276l.518,1.934c.799,2.981,5.43,1.716,4.629-1.276-4.341-16.202-8.683-32.405-13.024-48.607l-3.74-13.956c-.799-2.981-5.43-1.716-4.629,1.276h0Z"/><path class="e" d="M198.186,17.592c4.341,16.202,8.683,32.405,13.024,48.607,1.247,4.652,2.493,9.304,3.74,13.956l4.629-1.276-.518-1.934c-.799-2.981-5.43-1.716-4.629,1.276l.518,1.934c.799,2.981,5.43,1.716,4.629-1.276-4.341-16.202-8.683-32.405-13.024-48.607l-3.74-13.956c-.799-2.981-5.43-1.716-4.629,1.276h0Z"/><path class="e" d="M167.951,27.909l9,33.588c.799,2.981,5.43,1.716,4.629-1.276l-9-33.588c-.799-2.981-5.43-1.716-4.629,1.276h0Z"/><path class="e" d="M98.245,147.744h55.337c3.089,0,3.094-4.8,0-4.8h-55.337c-3.089,0-3.094,4.8,0,4.8h0Z"/><path class="e" d="M98.245,163.495c18.446,0,36.892,0,55.337,0,3.089,0,3.094-4.8,0-4.8-18.446,0-36.892,0-55.337,0-3.089,0-3.094,4.8,0,4.8h0Z"/><path class="f" d="M218.025,6.407v5.985c0,2.209-1.791,4-4,4-30.085,0-69.281,0-96.72,0-2.209,0-3.993-1.791-3.993-4v-5.985c0-2.209,1.791-4,4-4h96.713c2.209,0,4,1.791,4,4Z"/><path class="e" d="M215.625,9.399c0,1.861-1.151,3.587-2.889,4.278-1.054.419-2.181.314-3.291.314-1.485,0-2.971,0-4.456,0-5.926,0-11.851,0-17.777,0-12.395,0-24.79,0-37.186,0-5.954,0-11.908,0-17.862,0-2.719,0-5.438,0-8.156,0-2.156,0-4.759.459-6.575-.982-3.209-2.547-1.545-7.891,2.522-8.194.599-.045,1.213-.009,1.812-.009h28.804c13.586,0,27.172,0,40.758,0h18.567c.963,0,1.914-.051,2.833.314,1.773.704,2.849,2.404,2.895,4.278.076,3.083,4.876,3.095,4.8,0-.128-5.208-4.212-9.288-9.425-9.392-.733-.015-1.469,0-2.202,0h-12.841c-14.01,0-28.019,0-42.029,0h-31.793c-.609,0-1.22-.013-1.829,0-5.828.124-10.183,5.306-9.232,11.069.439,2.662,2.163,5.074,4.484,6.434,2.609,1.529,5.548,1.281,8.451,1.281,5.989,0,11.979,0,17.968,0,12.897,0,25.794,0,38.692,0,6.451,0,12.901,0,19.352,0,3.142,0,6.284,0,9.425,0,2.954,0,5.584-.391,7.876-2.418,1.963-1.737,3.104-4.36,3.104-6.974,0-3.089-4.8-3.094-4.8,0Z"/><path class="e" d="M213.907,202.131c-1.751.239-3.351-1.046-3.499-2.807-.091-1.075-.151-1.935-.151-1.935l-.47-5.16h.009c4.262-.388,8.32-1.2,12.103-2.421,1.56-.504,3.238.281,3.834,1.808l1.501,3.847c.643,1.647-.218,3.512-1.898,4.063-3.629,1.19-7.453,2.062-11.428,2.605ZM196.129,202.179c-3.988-.559-7.844-1.512-11.521-2.85-1.668-.607-2.469-2.51-1.763-4.139l1.644-3.79c.649-1.497,2.344-2.218,3.88-1.67,2.862,1.022,5.864,1.762,8.974,2.212,1.621.235,2.782,1.682,2.643,3.314l-.351,4.115c-.15,1.764-1.752,3.054-3.506,2.809ZM236.882,190.492l-2.269-3.452c-.898-1.367-.563-3.18.739-4.171,2.414-1.84,4.598-3.924,6.528-6.231,1.049-1.253,2.871-1.509,4.196-.554l3.352,2.417c1.439,1.038,1.729,3.086.601,4.455-2.559,3.107-5.479,5.895-8.724,8.331-1.418,1.064-3.449.687-4.423-.795ZM168.95,190.377c-3.082-2.558-5.86-5.467-8.302-8.692-1.069-1.412-.702-3.441.771-4.423l3.438-2.29c1.364-.908,3.182-.581,4.179.718,1.86,2.424,3.956,4.62,6.265,6.565,1.251,1.054,1.499,2.88.536,4.202l-2.434,3.339c-1.044,1.432-3.091,1.713-4.455.581ZM254.759,169.02l-3.803-1.614c-1.503-.638-2.238-2.328-1.7-3.869.999-2.864,1.727-5.882,2.176-9.023.232-1.624,1.684-2.788,3.319-2.647l4.113.357c1.761.153,3.048,1.752,2.804,3.503-.555,3.995-1.487,7.843-2.786,11.499-.594,1.672-2.49,2.486-4.123,1.793ZM152.283,165.812c-1.237-3.625-2.152-7.433-2.736-11.38-.258-1.743,1.004-3.35,2.757-3.526l4.107-.414c1.639-.165,3.113.988,3.359,2.617.481,3.181,1.214,6.244,2.193,9.156.522,1.555-.244,3.243-1.765,3.856l-3.831,1.544c-1.64.661-3.513-.179-4.083-1.852ZM258.685,141.461l-4.094.323c-1.582.125-2.998-.965-3.284-2.526-.464-2.532-1.224-6.339-2.087-9.326-.438-1.516.354-3.118,1.814-3.718l3.792-1.557c1.708-.701,3.636.242,4.149,2.015,1.044,3.603,1.954,8.124,2.51,11.158.33,1.801-.974,3.486-2.8,3.63ZM156.378,140.46l-4.112-.384c-1.765-.165-3.044-1.78-2.779-3.532.595-3.942,1.594-7.788,2.988-11.492.624-1.66,2.531-2.444,4.152-1.724l3.775,1.676c1.493.663,2.201,2.369,1.634,3.901-1.069,2.887-1.846,5.881-2.324,8.948-.252,1.616-1.706,2.76-3.334,2.608ZM242.191,116.669c-1.879-2.429-3.99-4.645-6.312-6.625-1.248-1.064-1.479-2.899-.499-4.214l2.469-3.312c1.057-1.418,3.1-1.678,4.453-.539,3.051,2.57,5.81,5.465,8.245,8.651,1.073,1.405.719,3.432-.746,4.422l-3.422,2.313c-1.36.919-3.184.602-4.189-.696ZM165.383,116.338l-3.347-2.421c-1.433-1.037-1.722-3.076-.602-4.445,2.536-3.101,5.395-5.904,8.545-8.376,1.392-1.092,3.425-.762,4.433.693l2.352,3.396c.934,1.348.639,3.174-.644,4.194-2.394,1.903-4.578,4.044-6.53,6.401-1.046,1.263-2.878,1.52-4.207.559ZM222.87,102.338c-2.859-1.088-5.841-1.887-8.913-2.389-1.614-.263-2.748-1.726-2.584-3.354l.416-4.109c.178-1.763,1.803-3.03,3.553-2.753,3.956.626,7.797,1.657,11.478,3.081,1.656.64,2.42,2.558,1.682,4.172l-1.717,3.758c-.678,1.485-2.389,2.174-3.915,1.593ZM185.53,100.38l-1.561-3.715c-.708-1.684.185-3.626,1.935-4.152,3.692-1.109,8.343-2.073,11.43-2.66,1.792-.341,3.483.942,3.649,2.759l.629,6.903-.259.024c-4.165.379-8.173,1.236-11.951,2.553-1.544.538-3.237-.203-3.871-1.711Z"/><path class="g" d="M205.58,95.736c-29.564,0-49.998,22.897-49.998,49.691,0,29.978,20.874,50.623,50,50.623,30.248,0,50-20.837,50-50.623,0-26.976-20.542-49.691-50.002-49.691Z"/><path class="e" d="M205.58,93.336c-11.375.037-22.714,3.397-31.837,10.294-8.643,6.535-15.013,15.649-18.209,26.009-6.351,20.586-.003,44.994,17.302,58.29,8.409,6.461,18.776,9.822,29.305,10.424,10.87.622,22.117-1.516,31.579-7.034,8.59-5.01,15.432-12.754,19.418-21.857,4.448-10.157,5.838-21.669,4.153-32.618-1.616-10.501-6.549-20.461-13.966-28.074-7.699-7.903-17.998-13.088-28.894-14.737-2.935-.444-5.884-.686-8.852-.695-3.089-.01-3.093,4.79,0,4.8,10.47.034,20.681,3.122,29.116,9.394,7.737,5.754,13.458,14.13,16.296,23.315,5.681,18.389.6,40.551-14.564,52.83-7.35,5.951-16.858,9.136-26.302,9.814-10.007.719-20.241-.96-29.062-5.875-8.112-4.519-14.475-11.48-18.422-19.889-4.224-8.998-5.653-19.75-4.143-29.563,1.494-9.708,5.837-18.865,12.694-25.932,7.088-7.305,16.416-11.919,26.442-13.513,2.625-.417,5.29-.574,7.946-.582,3.088-.01,3.094-4.81,0-4.8Z"/><path class="d" d="M205.581,119.534c-15.536,0-26.275,12.033-26.275,26.114,0,15.755,10.97,26.604,26.276,26.604,15.896,0,26.276-10.951,26.276-26.604,0-14.177-10.795-26.114-26.277-26.114Z"/><path class="e" d="M205.581,117.134c-6.182.038-12.36,1.831-17.325,5.58-4.756,3.591-8.261,8.539-10.043,14.235-3.491,11.16-.078,24.52,9.282,31.784,9.259,7.187,23.277,7.911,33.393,2.048,10.304-5.972,14.691-18.309,12.997-29.752-1.771-11.964-11.407-21.684-23.375-23.493-1.636-.247-3.274-.392-4.929-.402-3.089-.019-3.093,4.781,0,4.8,10.417.064,19.793,6.437,22.83,16.562,2.769,9.232.209,20.3-7.38,26.411-7.408,5.966-19.26,6.576-27.587,2.024-8.765-4.792-12.98-15.161-11.488-24.927.844-5.524,3.546-10.601,7.732-14.31,4.373-3.875,10.105-5.725,15.893-5.76,3.088-.019,3.094-4.819,0-4.8Z"/><path class="e" d="M65.367,202.474c-1.427.184-2.722-.873-2.831-2.307-.067-.876-.111-1.577-.111-1.577l-.35-4.204h.007c3.472-.289,6.781-.925,9.869-1.896,1.273-.4,2.635.249,3.11,1.496l1.198,3.142c.513,1.345-.199,2.858-1.571,3.296-2.962.946-6.081,1.632-9.321,2.049ZM50.893,202.403c-3.243-.48-6.376-1.28-9.362-2.392-1.355-.504-1.995-2.059-1.409-3.381l1.362-3.076c.538-1.214,1.922-1.791,3.169-1.335,2.324.85,4.763,1.471,7.292,1.857,1.318.201,2.254,1.387,2.131,2.714l-.311,3.348c-.134,1.435-1.446,2.476-2.872,2.265ZM84.145,193.142l-1.826-2.825c-.723-1.118-.438-2.592.627-3.391,1.977-1.483,3.768-3.166,5.354-5.032.861-1.014,2.347-1.211,3.42-.425l2.714,1.989c1.165.854,1.389,2.523.462,3.631-2.103,2.514-4.497,4.765-7.154,6.728-1.161.858-2.812.537-3.596-.675ZM28.839,192.625c-2.493-2.102-4.737-4.487-6.705-7.128-.861-1.156-.55-2.806.656-3.596l2.814-1.843c1.116-.731,2.594-.453,3.398.611,1.499,1.985,3.192,3.786,5.06,5.384,1.012.866,1.203,2.354.41,3.425l-2.002,2.703c-.859,1.16-2.527,1.375-3.63.445ZM98.833,175.772l-3.086-1.337c-1.22-.529-1.807-1.909-1.36-3.161.831-2.326,1.443-4.778,1.828-7.332.199-1.321,1.389-2.259,2.719-2.134l3.347.316c1.433.135,2.47,1.446,2.261,2.87-.477,3.249-1.26,6.376-2.34,9.345-.494,1.357-2.043,2.008-3.368,1.434ZM15.423,172.522c-.984-2.959-1.706-6.065-2.156-9.282-.199-1.42.838-2.721,2.266-2.854l3.346-.311c1.336-.124,2.528.824,2.718,2.152.372,2.593.95,5.091,1.728,7.467.416,1.269-.219,2.638-1.461,3.128l-3.128,1.233c-1.339.528-2.859-.168-3.313-1.533ZM102.201,153.36l-3.335.237c-1.288.092-2.435-.805-2.658-2.077-.362-2.065-.957-5.168-1.641-7.605-.347-1.237.308-2.536,1.5-3.015l3.097-1.244c1.395-.56,2.958.22,3.365,1.667.827,2.94,1.541,6.626,1.974,9.1.257,1.469-.815,2.832-2.302,2.938ZM18.916,151.907l-3.345-.339c-1.436-.145-2.467-1.468-2.241-2.893.509-3.206,1.347-6.33,2.504-9.337.519-1.348,2.076-1.974,3.391-1.378l3.063,1.388c1.212.549,1.777,1.942,1.306,3.186-.888,2.344-1.54,4.776-1.948,7.27-.215,1.314-1.406,2.237-2.731,2.103ZM88.927,133.073c-1.515-1.989-3.22-3.806-5.097-5.433-1.009-.874-1.186-2.37-.38-3.434l2.03-2.681c.869-1.148,2.535-1.347,3.629-.411,2.468,2.111,4.696,4.485,6.659,7.095.865,1.15.564,2.799-.635,3.596l-2.801,1.861c-1.113.74-2.596.47-3.406-.593ZM26.397,132.324l-2.71-1.992c-1.16-.853-1.383-2.515-.463-3.623,2.084-2.509,4.429-4.773,7.009-6.766,1.14-.88,2.793-.599,3.604.591l1.894,2.779c.752,1.103.501,2.588-.551,3.411-1.961,1.534-3.752,3.264-5.356,5.17-.86,1.022-2.353,1.22-3.429.429ZM73.287,121.285c-2.321-.904-4.743-1.573-7.242-2-1.312-.225-2.227-1.423-2.083-2.746l.364-3.342c.156-1.434,1.487-2.455,2.91-2.219,3.217.534,6.338,1.397,9.326,2.58,1.344.532,1.954,2.098,1.343,3.407l-1.422,3.049c-.562,1.204-1.959,1.755-3.197,1.273ZM42.899,119.458l-1.248-3.034c-.566-1.375.174-2.951,1.601-3.368,3.013-.88,6.805-1.636,9.322-2.095,1.461-.266,2.83.789,2.953,2.269l.469,5.624-.211.018c-3.394.283-6.661.955-9.746,2.004-1.261.429-2.634-.185-3.141-1.417Z"/><path class="g" d="M55.539,115.937c-23.986,1.999-39.017,21.959-37.205,43.698,2.027,24.323,20.36,39.661,43.991,37.691,24.542-2.046,39.158-20.288,37.144-44.454-1.824-21.887-20.027-38.927-43.929-36.935Z"/><path class="e" d="M55.539,113.537c-9.493.829-18.506,4.338-25.677,10.688-6.488,5.746-11.062,13.629-12.971,22.072-3.914,17.304,2.703,36.916,17.734,46.824,7.329,4.831,16.218,6.993,24.945,6.758,8.85-.238,17.87-2.635,25.199-7.715,6.95-4.817,12.07-11.692,14.838-19.672,2.907-8.381,3.22-17.892,1.185-26.505s-6.744-16.575-13.433-22.338c-6.928-5.969-15.558-9.427-24.658-10.14-2.385-.187-4.779-.162-7.163.028-1.292.103-2.4,1.03-2.4,2.4,0,1.219,1.101,2.503,2.4,2.4,8.422-.669,16.837,1.023,24.052,5.509,6.576,4.089,11.813,10.34,14.71,17.525,5.776,14.327,3.339,32.504-7.948,43.351-11.114,10.68-29.998,13.442-43.995,7.166-6.911-3.098-12.603-8.235-16.367-14.817-4.062-7.103-5.849-15.579-5.314-23.725.504-7.672,3.393-15.307,8.283-21.265,5.173-6.304,12.225-10.69,20.128-12.665,2.122-.53,4.273-.889,6.451-1.079,1.291-.113,2.4-1.022,2.4-2.4,0-1.211-1.101-2.513-2.4-2.4Z"/><path class="d" d="M57.149,135.246c-12.605,1.051-20.505,11.54-19.552,22.965,1.065,12.782,10.7,20.843,23.119,19.808,12.897-1.075,20.579-10.662,19.52-23.362-.959-11.502-10.525-20.457-23.086-19.41Z"/><path class="e" d="M57.149,132.846c-5.291.481-10.239,2.377-14.252,5.908-3.538,3.113-6.063,7.436-7.129,12.019-2.233,9.606,1.416,20.413,9.722,25.957,7.987,5.331,19.783,4.998,27.629-.465,8.125-5.658,11.139-16.069,8.912-25.518-1.27-5.39-4.455-10.163-8.88-13.467-4.564-3.408-10.357-4.862-16.003-4.434-1.293.098-2.4,1.033-2.4,2.4,0,1.223,1.1,2.499,2.4,2.4,8.212-.623,16.062,3.514,19.281,11.291,2.943,7.108,1.71,16.205-3.814,21.576-5.467,5.315-14.816,6.684-21.78,3.682-7.442-3.209-11.336-11.205-10.88-19.115.538-9.311,7.996-16.598,17.193-17.434,1.291-.117,2.4-1.019,2.4-2.4,0-1.207-1.102-2.518-2.4-2.4Z"/><path class="f" d="M248.238,75.803c2.07,1.243,4.069,2.588,5.991,4.026,1.307.977,1.647,2.795.785,4.181l-6.886,11.063c-.982,1.577-3.099,1.946-4.576.82-10.124-7.713-23.025-12.334-37.74-12.334-28.171,0-49.583,16.952-57.735,39.926-.438,1.235-1.63,2.042-2.94,2.042-1.217,0-2.422,0-3.499,0-2.058,0-3.58-1.954-3.037-3.939,8.74-31.932,35.704-56.057,71.738-56.057,14.217,0,27.045,3.752,37.9,10.272Z"/><path class="e" d="M247.027,77.875c1.927,1.166,3.702,2.239,4.232,4.58.353,1.557-.019,3.039-.834,4.386-1.351,2.235-2.754,4.441-4.141,6.653-.734,1.171-1.487.337-2.44-.36-2.072-1.516-4.244-2.895-6.496-4.127-4.702-2.573-9.762-4.548-14.962-5.845-19.674-4.907-41.239-.815-57.123,11.928-6.977,5.598-12.698,12.831-16.612,20.87-.488,1.002-.944,2.018-1.38,3.044-.421.992-.712,2.236-1.338,3.113-.846,1.184-2.642,1.358-3.709.389-1.525-1.384-.375-3.499.167-5.094.701-2.061,1.475-4.1,2.354-6.093,7.158-16.233,19.727-29.708,35.926-37.13,18.348-8.407,40.799-8.428,59.165-.09,2.468,1.12,4.864,2.388,7.191,3.776,2.659,1.587,5.076-2.561,2.423-4.145-19.388-11.57-44.057-13.823-65.281-6.119-18.115,6.575-32.979,20.173-41.686,37.314-2.193,4.317-4.074,8.854-5.46,13.496-.825,2.763-.176,5.757,2.048,7.693,1.942,1.69,4.793,2.298,7.238,1.417,1.248-.45,2.358-1.196,3.198-2.225.929-1.138,1.347-2.495,1.896-3.834.849-2.072,1.846-4.088,2.935-6.043,2.247-4.035,4.95-7.788,8.1-11.167,14.004-15.023,35.453-21.084,55.466-17.183,5.432,1.059,10.723,2.817,15.65,5.345,2.405,1.234,4.724,2.634,6.937,4.187,1.107.777,2.14,1.746,3.469,2.12,1.439.405,3.032.207,4.322-.551,1.344-.79,2.057-2.113,2.849-3.385l2.592-4.164c.728-1.169,1.458-2.299,1.918-3.612.873-2.493.666-5.262-.398-7.656-1.182-2.658-3.38-4.172-5.791-5.631-2.65-1.603-5.065,2.546-2.423,4.145Z"/></g></svg>